<svg xmlns="http://www.w3.org/2000/svg" viewBox="0 0 900 900" role="img" aria-labelledby="title desc">
  <title id="title">Multi-agent manufacturing planning placeholder</title>
  <desc id="desc">Manufacturing work cells connected by planning arrows.</desc>
  <rect width="900" height="900" fill="#f7f5f2"/>
  <g fill="#ffffff" stroke="#1a1a1a" stroke-width="10">
    <rect x="120" y="180" width="220" height="170" rx="24"/>
    <rect x="560" y="180" width="220" height="170" rx="24"/>
    <rect x="340" y="550" width="220" height="170" rx="24"/>
  </g>
  <g fill="none" stroke="#A08B3A" stroke-width="14" stroke-linecap="round" stroke-linejoin="round">
    <path d="M340 264h192"/>
    <path d="m504 222 50 42-50 42"/>
    <path d="M610 354 504 526"/>
    <path d="m552 510-60 34 0-70"/>
    <path d="M340 636H214V380"/>
    <path d="m174 420 40-56 40 56"/>
  </g>
  <g fill="#D9C06C" stroke="#A08B3A" stroke-width="8">
    <circle cx="230" cy="265" r="44"/><circle cx="670" cy="265" r="44"/><circle cx="450" cy="635" r="44"/>
  </g>
  <g font-family="Inter, Arial" font-size="34" font-weight="900" fill="#4a3311" text-anchor="middle">
    <text x="230" y="276">A1</text><text x="670" y="276">A2</text><text x="450" y="646">A3</text>
  </g>
</svg>
