<svg xmlns="http://www.w3.org/2000/svg" viewBox="0 0 1200 1200" role="img">
  <defs>
    <linearGradient id="sky" x1="0" x2="1" y1="0" y2="1"><stop stop-color="#fbfaf7"/><stop offset=".55" stop-color="#e8e2d3"/><stop offset="1" stop-color="#bfc8ca"/></linearGradient>
    <linearGradient id="gold" x1="0" x2="0" y1="0" y2="1"><stop stop-color="#f5efd9"/><stop offset=".52" stop-color="#d9c06c"/><stop offset="1" stop-color="#a98f34"/></linearGradient>
    <filter id="shadow" x="-20%" y="-20%" width="140%" height="140%"><feDropShadow dx="0" dy="24" stdDeviation="22" flood-color="#111" flood-opacity=".28"/></filter>
    <filter id="grain"><feTurbulence type="fractalNoise" baseFrequency=".9" numOctaves="2" stitchTiles="stitch"/><feColorMatrix type="saturate" values="0"/><feComponentTransfer><feFuncA type="table" tableValues="0 .08"/></feComponentTransfer></filter>
  </defs>
  <rect width="1200" height="1200" fill="url(#sky)"/>
  <rect width="1200" height="1200" filter="url(#grain)" opacity=".45"/>
  <path d="M0 828c186-96 370-108 552-36 222 88 374 30 648-96v504H0Z" fill="#151515"/>
  <g opacity=".34" stroke="#a08b3a" stroke-width="3" fill="none">
    <path d="M80 210c155-62 306-62 454 0s294 62 438 0"/>
    <path d="M34 286c155-62 306-62 454 0s294 62 438 0"/>
    <path d="M142 362c155-62 306-62 454 0s294 62 438 0"/>
  </g>
  <g filter="url(#shadow)">
    <rect x="144" y="800" width="744" height="58" rx="29" fill="#2d2d2d"/>
    <rect x="646" y="614" width="182" height="180" rx="22" fill="url(#gold)" stroke="#a08b3a" stroke-width="10"/>
    <rect x="840" y="662" width="104" height="104" rx="18" fill="#f8f7f3" stroke="#252525" stroke-width="8"/>
    <circle cx="300" cy="800" r="72" fill="#191919" stroke="url(#gold)" stroke-width="22"/>
    <path d="M344 754 520 534" stroke="#597985" stroke-width="72" stroke-linecap="round"/>
    <circle cx="526" cy="526" r="64" fill="#f7f5f2" stroke="#1a1a1a" stroke-width="18"/>
    <path d="M572 518 734 616" stroke="#78a08a" stroke-width="62" stroke-linecap="round"/>
    <circle cx="758" cy="628" r="48" fill="url(#gold)" stroke="#a08b3a" stroke-width="13"/>
    <path d="M794 646h96" stroke="#1a1a1a" stroke-width="22" stroke-linecap="round"/>
    <path d="M922 624v60M964 624v60" stroke="#1a1a1a" stroke-width="12" stroke-linecap="round"/>
  </g>
  <rect x="98" y="112" width="1004" height="786" rx="42" fill="none" stroke="#fff" stroke-opacity=".42" stroke-width="2"/>
</svg>
