<svg xmlns="http://www.w3.org/2000/svg" viewBox="0 0 1200 1200" role="img">
  <defs>
    <linearGradient id="bg" x1="0" x2="1" y1="0" y2="1"><stop stop-color="#f7f5f2"/><stop offset=".6" stop-color="#d9dfdc"/><stop offset="1" stop-color="#aebdc2"/></linearGradient>
    <filter id="shadow"><feDropShadow dx="0" dy="26" stdDeviation="24" flood-opacity=".26"/></filter>
  </defs>
  <rect width="1200" height="1200" fill="url(#bg)"/>
  <g filter="url(#shadow)">
    <rect x="142" y="178" width="916" height="704" rx="44" fill="#181818"/>
    <rect x="198" y="234" width="804" height="590" rx="30" fill="#f9f8f5"/>
    <g opacity=".28" stroke="#7a9eb7" stroke-width="2"><path d="M198 330h804M198 426h804M198 522h804M198 618h804M198 714h804M330 234v590M462 234v590M594 234v590M726 234v590M858 234v590"/></g>
    <rect x="310" y="392" width="244" height="178" rx="20" fill="#d9c06c" opacity=".88" stroke="#a08b3a" stroke-width="8"/>
    <circle cx="740" cy="486" r="112" fill="#6f987f" opacity=".9" stroke="#1a1a1a" stroke-width="8"/>
    <path d="M642 634h264l-126 116Z" fill="#719bb7" opacity=".88" stroke="#1a1a1a" stroke-width="8"/>
    <g fill="#bf7257"><circle cx="292" cy="310" r="10"/><circle cx="430" cy="330" r="7"/><circle cx="884" cy="338" r="9"/><circle cx="916" cy="692" r="8"/><circle cx="528" cy="742" r="9"/></g>
    <g fill="none" stroke="#1a1a1a" stroke-width="8" stroke-dasharray="18 13"><rect x="288" y="372" width="292" height="222" rx="24"/><rect x="602" y="346" width="310" height="284" rx="24"/></g>
    <rect x="486" y="926" width="228" height="48" rx="24" fill="#1a1a1a"/>
    <circle cx="600" cy="926" r="54" fill="#fff" stroke="#a08b3a" stroke-width="11"/>
  </g>
</svg>
