<svg xmlns="http://www.w3.org/2000/svg" viewBox="0 0 1200 1200" role="img">
  <defs><linearGradient id="bg" x1="0" x2="1" y1="0" y2="1"><stop stop-color="#faf8f3"/><stop offset="1" stop-color="#d7d1c4"/></linearGradient><linearGradient id="path" x1="0" x2="1"><stop stop-color="#7fa28b"/><stop offset=".55" stop-color="#d9c06c"/><stop offset="1" stop-color="#bf7257"/></linearGradient><filter id="shadow"><feDropShadow dx="0" dy="20" stdDeviation="18" flood-opacity=".22"/></filter></defs>
  <rect width="1200" height="1200" fill="url(#bg)"/>
  <g fill="#1a1a1a" opacity=".12"><rect x="160" y="200" width="190" height="230" rx="24"/><rect x="808" y="178" width="210" height="260" rx="24"/><rect x="510" y="542" width="220" height="170" rx="24"/><rect x="150" y="792" width="288" height="154" rx="24"/></g>
  <g filter="url(#shadow)" fill="none" stroke-linecap="round">
    <path d="M142 984C280 794 320 620 512 548c168-64 240-220 514-310" stroke="url(#path)" stroke-width="18"/>
    <path d="M142 984 300 816 390 658 512 548 660 426 814 318 1026 238" stroke="#1a1a1a" stroke-width="5" stroke-dasharray="18 18"/>
    <path d="M240 866c68 34 142 18 210-40M420 640c74 44 146 36 220-18M672 408c72 46 148 42 232 0" stroke="#a08b3a" stroke-width="10"/>
  </g>
  <g fill="#fff" stroke="#1a1a1a" stroke-width="9"><circle cx="142" cy="984" r="34"/><circle cx="300" cy="816" r="24"/><circle cx="390" cy="658" r="24"/><circle cx="512" cy="548" r="24"/><circle cx="660" cy="426" r="24"/><circle cx="814" cy="318" r="24"/><circle cx="1026" cy="238" r="34"/></g>
  <circle cx="956" cy="726" r="78" fill="#d9c06c" stroke="#a08b3a" stroke-width="10"/><path d="M922 726h68M956 692v68" stroke="#4a3311" stroke-width="13" stroke-linecap="round"/>
</svg>
