<svg xmlns="http://www.w3.org/2000/svg" viewBox="0 0 1200 1200" role="img">
  <defs><radialGradient id="bg" cx=".5" cy=".35" r=".75"><stop stop-color="#fff"/><stop offset=".7" stop-color="#e8e2d4"/><stop offset="1" stop-color="#c7c1b7"/></radialGradient><filter id="shadow"><feDropShadow dx="0" dy="24" stdDeviation="20" flood-opacity=".24"/></filter></defs>
  <rect width="1200" height="1200" fill="url(#bg)"/>
  <g filter="url(#shadow)"><g stroke="#1a1a1a" stroke-width="14" stroke-linecap="round"><path d="M330 842 528 320M528 320l338 126M330 842l536-396M866 446 706 910M330 842l376 68M528 320l178 590"/></g><g stroke="#a08b3a" stroke-width="6" stroke-dasharray="18 14" fill="none"><path d="M330 842 866 446M528 320 706 910M528 320 330 842M866 446 330 842M706 910 330 842"/></g><g fill="#d9c06c" stroke="#a08b3a" stroke-width="10"><circle cx="330" cy="842" r="54"/><circle cx="528" cy="320" r="54"/><circle cx="866" cy="446" r="54"/><circle cx="706" cy="910" r="54"/></g></g>
</svg>
