<svg xmlns="http://www.w3.org/2000/svg" viewBox="0 0 900 900" role="img" aria-labelledby="title desc">
  <title id="title">Adaptive vision placeholder</title>
  <desc id="desc">A camera view of segmented manufacturing objects and point cloud markers.</desc>
  <rect width="900" height="900" fill="#f7f5f2"/>
  <g stroke="#d5d0c7" stroke-width="2">
    <path d="M0 150h900M0 300h900M0 450h900M0 600h900M0 750h900M150 0v900M300 0v900M450 0v900M600 0v900M750 0v900"/>
  </g>
  <rect x="120" y="150" width="660" height="520" rx="32" fill="#1e1e1e" stroke="#A08B3A" stroke-width="12"/>
  <rect x="166" y="198" width="568" height="424" rx="24" fill="#f7f5f2"/>
  <rect x="250" y="304" width="174" height="136" rx="18" fill="#D9C06C" opacity=".8" stroke="#A08B3A" stroke-width="8"/>
  <circle cx="560" cy="380" r="82" fill="#6e9380" opacity=".86" stroke="#1a1a1a" stroke-width="7"/>
  <path d="M486 486h194l-92 86Z" fill="#7a9eb7" opacity=".86" stroke="#1a1a1a" stroke-width="7"/>
  <g fill="#bf7257">
    <circle cx="230" cy="242" r="9"/><circle cx="306" cy="258" r="6"/><circle cx="648" cy="262" r="8"/><circle cx="692" cy="520" r="7"/><circle cx="414" cy="552" r="8"/><circle cx="210" cy="544" r="6"/>
  </g>
  <g fill="none" stroke="#1a1a1a" stroke-width="8" stroke-dasharray="16 12">
    <rect x="234" y="288" width="210" height="168" rx="20"/>
    <rect x="456" y="276" width="210" height="204" rx="20"/>
  </g>
  <path d="M286 724h328" stroke="#1a1a1a" stroke-width="32" stroke-linecap="round"/>
  <circle cx="450" cy="724" r="42" fill="#fff" stroke="#A08B3A" stroke-width="10"/>
</svg>
