<svg xmlns="http://www.w3.org/2000/svg" viewBox="0 0 900 900" role="img" aria-labelledby="title desc">
  <title id="title">AI-enabled robotic agent placeholder</title>
  <desc id="desc">A network of reasoning nodes connected to a small robotic end effector.</desc>
  <defs>
    <linearGradient id="gold" x1="0" x2="0" y1="0" y2="1"><stop stop-color="#F0E8D0"/><stop offset=".55" stop-color="#D9C06C"/><stop offset="1" stop-color="#B9A149"/></linearGradient>
    <radialGradient id="glow" cx=".45" cy=".38" r=".65"><stop stop-color="#f0e8d0"/><stop offset=".55" stop-color="#f7f5f2"/><stop offset="1" stop-color="#d7dde0"/></radialGradient>
  </defs>
  <rect width="900" height="900" fill="url(#glow)"/>
  <g stroke="#1a1a1a" stroke-width="8" opacity=".55">
    <path d="M230 280 450 448 660 265M450 448l-96 184m96-184 126 174M230 280l124 352M660 265 576 622"/>
  </g>
  <g>
    <circle cx="230" cy="280" r="72" fill="#fff" stroke="#A08B3A" stroke-width="9"/>
    <circle cx="660" cy="265" r="76" fill="#fff" stroke="#A08B3A" stroke-width="9"/>
    <circle cx="450" cy="448" r="92" fill="url(#gold)" stroke="#A08B3A" stroke-width="10"/>
    <circle cx="354" cy="632" r="64" fill="#1a1a1a"/>
    <circle cx="576" cy="622" r="64" fill="#1a1a1a"/>
  </g>
  <g fill="#555" font-family="Inter, Arial" font-size="42" font-weight="800" text-anchor="middle">
    <text x="230" y="294">RAG</text>
    <text x="660" y="279">VLM</text>
    <text x="450" y="462" fill="#4a3311">PLAN</text>
    <text x="354" y="646" fill="#fff">ACT</text>
    <text x="576" y="636" fill="#fff">SEE</text>
  </g>
  <path d="M190 760h520" stroke="#1a1a1a" stroke-width="34" stroke-linecap="round"/>
  <rect x="392" y="706" width="116" height="76" rx="18" fill="#fff" stroke="#1a1a1a" stroke-width="10"/>
</svg>
