<svg xmlns="http://www.w3.org/2000/svg" viewBox="0 0 1200 1200" role="img">
  <defs><linearGradient id="bg" x1="0" x2="0" y1="0" y2="1"><stop stop-color="#f7f5f2"/><stop offset=".52" stop-color="#dfe5e4"/><stop offset=".53" stop-color="#1a1a1a"/><stop offset="1" stop-color="#0d0d0d"/></linearGradient><linearGradient id="gold" x1="0" x2="0" y1="0" y2="1"><stop stop-color="#f0e8d0"/><stop offset=".55" stop-color="#d9c06c"/><stop offset="1" stop-color="#b9a149"/></linearGradient><filter id="shadow"><feDropShadow dx="0" dy="24" stdDeviation="20" flood-opacity=".28"/></filter></defs>
  <rect width="1200" height="1200" fill="url(#bg)"/>
  <path d="M600 650v550" stroke="#d9c06c" stroke-width="20" stroke-dasharray="70 54"/>
  <g fill="none" stroke="#a08b3a" stroke-width="8" opacity=".58"><path d="M600 540c-160-142-356-130-486-16"/><path d="M600 540c172-158 376-150 510-18"/><path d="M600 540c-92-86-204-86-296-16"/><path d="M600 540c102-96 218-96 320-14"/></g>
  <g filter="url(#shadow)"><path d="M320 658 430 474h330l122 184Z" fill="#fff" stroke="#1a1a1a" stroke-width="16"/><rect x="260" y="634" width="680" height="180" rx="56" fill="url(#gold)" stroke="#a08b3a" stroke-width="16"/><rect x="470" y="512" width="258" height="92" rx="20" fill="#1e1e1e"/><circle cx="392" cy="824" r="66" fill="#1a1a1a" stroke="#fff" stroke-width="16"/><circle cx="808" cy="824" r="66" fill="#1a1a1a" stroke="#fff" stroke-width="16"/><rect x="552" y="426" width="96" height="54" rx="14" fill="#7fa28b" stroke="#1a1a1a" stroke-width="8"/></g>
</svg>
